<?xml version="1.0" encoding="UTF-8"?>
<?xml-stylesheet href="https://cdnjs.cloudflare.com/ajax/libs/font-awesome/6.6.0/css/all.min.css" type="text/css"?>
<svg aria-roledescription="er" role="graphics-document document" viewBox="0 0 454.234375 562.826171875" style="max-width: 100%;" xmlns="http://www.w3.org/2000/svg" width="100%" id="graph-div" height="100%" xmlns:xlink="http://www.w3.org/1999/xlink"><style>#graph-div{font-family:"trebuchet ms",verdana,arial,sans-serif;font-size:16px;fill:#333;}#graph-div .error-icon{fill:#552222;}#graph-div .error-text{fill:#552222;stroke:#552222;}#graph-div .edge-thickness-normal{stroke-width:1px;}#graph-div .edge-thickness-thick{stroke-width:3.5px;}#graph-div .edge-pattern-solid{stroke-dasharray:0;}#graph-div .edge-thickness-invisible{stroke-width:0;fill:none;}#graph-div .edge-pattern-dashed{stroke-dasharray:3;}#graph-div .edge-pattern-dotted{stroke-dasharray:2;}#graph-div .marker{fill:#333333;stroke:#333333;}#graph-div .marker.cross{stroke:#333333;}#graph-div svg{font-family:"trebuchet ms",verdana,arial,sans-serif;font-size:16px;}#graph-div p{margin:0;}#graph-div .entityBox{fill:#ECECFF;stroke:#9370DB;}#graph-div .attributeBoxOdd{fill:#ffffff;stroke:#9370DB;}#graph-div .attributeBoxEven{fill:#f2f2f2;stroke:#9370DB;}#graph-div .relationshipLabelBox{fill:hsl(80, 100%, 96.2745098039%);opacity:0.7;background-color:hsl(80, 100%, 96.2745098039%);}#graph-div .relationshipLabelBox rect{opacity:0.5;}#graph-div .relationshipLine{stroke:#333333;}#graph-div .entityTitleText{text-anchor:middle;font-size:18px;fill:#333;}#graph-div #MD_PARENT_START{fill:#f5f5f5!important;stroke:#333333!important;stroke-width:1;}#graph-div #MD_PARENT_END{fill:#f5f5f5!important;stroke:#333333!important;stroke-width:1;}#graph-div :root{--mermaid-font-family:"trebuchet ms",verdana,arial,sans-serif;}</style><g></g><defs><marker orient="auto" markerHeight="240" markerWidth="190" refY="7" refX="0" id="MD_PARENT_START"><path d="M 18,7 L9,13 L1,7 L9,1 Z"></path></marker></defs><defs><marker orient="auto" markerHeight="28" markerWidth="20" refY="7" refX="19" id="MD_PARENT_END"><path d="M 18,7 L9,13 L1,7 L9,1 Z"></path></marker></defs><defs><marker orient="auto" markerHeight="18" markerWidth="18" refY="9" refX="0" id="ONLY_ONE_START"><path d="M9,0 L9,18 M15,0 L15,18" fill="none" stroke="gray"></path></marker></defs><defs><marker orient="auto" markerHeight="18" markerWidth="18" refY="9" refX="18" id="ONLY_ONE_END"><path d="M3,0 L3,18 M9,0 L9,18" fill="none" stroke="gray"></path></marker></defs><defs><marker orient="auto" markerHeight="18" markerWidth="30" refY="9" refX="0" id="ZERO_OR_ONE_START"><circle r="6" cy="9" cx="21" fill="white" stroke="gray"></circle><path d="M9,0 L9,18" fill="none" stroke="gray"></path></marker></defs><defs><marker orient="auto" markerHeight="18" markerWidth="30" refY="9" refX="30" id="ZERO_OR_ONE_END"><circle r="6" cy="9" cx="9" fill="white" stroke="gray"></circle><path d="M21,0 L21,18" fill="none" stroke="gray"></path></marker></defs><defs><marker orient="auto" markerHeight="36" markerWidth="45" refY="18" refX="18" id="ONE_OR_MORE_START"><path d="M0,18 Q 18,0 36,18 Q 18,36 0,18 M42,9 L42,27" fill="none" stroke="gray"></path></marker></defs><defs><marker orient="auto" markerHeight="36" markerWidth="45" refY="18" refX="27" id="ONE_OR_MORE_END"><path d="M3,9 L3,27 M9,18 Q27,0 45,18 Q27,36 9,18" fill="none" stroke="gray"></path></marker></defs><defs><marker orient="auto" markerHeight="36" markerWidth="57" refY="18" refX="18" id="ZERO_OR_MORE_START"><circle r="6" cy="18" cx="48" fill="white" stroke="gray"></circle><path d="M0,18 Q18,0 36,18 Q18,36 0,18" fill="none" stroke="gray"></path></marker></defs><defs><marker orient="auto" markerHeight="36" markerWidth="57" refY="18" refX="39" id="ZERO_OR_MORE_END"><circle r="6" cy="18" cx="9" fill="white" stroke="gray"></circle><path d="M21,18 Q39,0 57,18 Q39,36 21,18" fill="none" stroke="gray"></path></marker></defs><path style="stroke: gray; fill: none;" marker-start="url(#ZERO_OR_MORE_START)" marker-end="url(#ZERO_OR_MORE_END)" d="M102.387,88L97.427,96.333C92.466,104.667,82.546,121.333,77.585,156.379C72.625,191.425,72.625,244.85,72.625,271.563L72.625,298.275" class="er relationshipLine"></path><path style="stroke: gray; fill: none;" marker-start="url(#ZERO_OR_MORE_START)" marker-end="url(#ZERO_OR_MORE_END)" d="M383.555,88L383.555,96.333C383.555,104.667,383.555,121.333,381.722,138C379.89,154.667,376.226,171.333,374.394,179.667L372.561,188" class="er relationshipLine"></path><path style="stroke: gray; fill: none;" marker-start="url(#ZERO_OR_MORE_START)" marker-end="url(#ZERO_OR_MORE_END)" d="M167.388,88L178.359,96.333C189.33,104.667,211.272,121.333,227.541,141.673C243.81,162.013,254.405,186.026,259.702,198.032L265,210.039" class="er relationshipLine"></path><g transform="translate(72.625,20 )" id="entity-alert-b396002d-4662-5078-91b4-5545f93aa008"><rect height="68" width="100" y="0" x="0" class="er entityBox"></rect><text style="dominant-baseline: middle; text-anchor: middle; font-size: 12px;" transform="translate(50,12)" y="0" x="0" id="text-entity-alert-b396002d-4662-5078-91b4-5545f93aa008" class="er entityLabel">alert</text><rect height="22" width="53.3515625" y="24" x="0" class="er attributeBoxOdd"></rect><text style="dominant-baseline: middle; font-size: 10.2px;" transform="translate(5,35)" y="0" x="0" id="text-entity-alert-b396002d-4662-5078-91b4-5545f93aa008-attr-1-type" class="er entityLabel">varchar</text><rect height="22" width="46.6484375" y="24" x="53.3515625" class="er attributeBoxOdd"></rect><text style="dominant-baseline: middle; font-size: 10.2px;" transform="translate(58.3515625,35)" y="0" x="0" id="text-entity-alert-b396002d-4662-5078-91b4-5545f93aa008-attr-1-name" class="er entityLabel">id</text><rect height="22" width="53.3515625" y="46" x="0" class="er attributeBoxEven"></rect><text style="dominant-baseline: middle; font-size: 10.2px;" transform="translate(5,57)" y="0" x="0" id="text-entity-alert-b396002d-4662-5078-91b4-5545f93aa008-attr-2-type" class="er entityLabel">boolean</text><rect height="22" width="46.6484375" y="46" x="53.3515625" class="er attributeBoxEven"></rect><text style="dominant-baseline: middle; font-size: 10.2px;" transform="translate(58.3515625,57)" y="0" x="0" id="text-entity-alert-b396002d-4662-5078-91b4-5545f93aa008-attr-2-name" class="er entityLabel">delete</text></g><g transform="translate(20,298.275390625 )" id="entity-alert-bdfbec97-e65d-501d-bd60-5e1f7da76bce"><rect height="134.27539253234863" width="105.25" y="0" x="0" class="er entityBox"></rect><text style="dominant-baseline: middle; text-anchor: middle; font-size: 12px;" transform="translate(52.625,12)" y="0" x="0" id="text-entity-alert-bdfbec97-e65d-501d-bd60-5e1f7da76bce" class="er entityLabel">_alert</text><rect height="22.091797828674316" width="44.265625" y="24" x="0" class="er attributeBoxOdd"></rect><text style="dominant-baseline: middle; font-size: 10.2px;" transform="translate(5,35.04589891433716)" y="0" x="0" id="text-entity-alert-bdfbec97-e65d-501d-bd60-5e1f7da76bce-attr-1-type" class="er entityLabel">integer</text><rect height="22.091797828674316" width="60.984375" y="24" x="44.265625" class="er attributeBoxOdd"></rect><text style="dominant-baseline: middle; font-size: 10.2px;" transform="translate(49.265625,35.04589891433716)" y="0" x="0" id="text-entity-alert-bdfbec97-e65d-501d-bd60-5e1f7da76bce-attr-1-name" class="er entityLabel">tsId</text><rect height="22.091797828674316" width="44.265625" y="46.091797828674316" x="0" class="er attributeBoxEven"></rect><text style="dominant-baseline: middle; font-size: 10.2px;" transform="translate(5,57.137696743011475)" y="0" x="0" id="text-entity-alert-bdfbec97-e65d-501d-bd60-5e1f7da76bce-attr-2-type" class="er entityLabel">varchar</text><rect height="22.091797828674316" width="60.984375" y="46.091797828674316" x="44.265625" class="er attributeBoxEven"></rect><text style="dominant-baseline: middle; font-size: 10.2px;" transform="translate(49.265625,57.137696743011475)" y="0" x="0" id="text-entity-alert-bdfbec97-e65d-501d-bd60-5e1f7da76bce-attr-2-name" class="er entityLabel">point</text><rect height="22" width="44.265625" y="68.18359565734863" x="0" class="er attributeBoxOdd"></rect><text style="dominant-baseline: middle; font-size: 10.2px;" transform="translate(5,79.18359565734863)" y="0" x="0" id="text-entity-alert-bdfbec97-e65d-501d-bd60-5e1f7da76bce-attr-3-type" class="er entityLabel">varchar</text><rect height="22" width="60.984375" y="68.18359565734863" x="44.265625" class="er attributeBoxOdd"></rect><text style="dominant-baseline: middle; font-size: 10.2px;" transform="translate(49.265625,79.18359565734863)" y="0" x="0" id="text-entity-alert-bdfbec97-e65d-501d-bd60-5e1f7da76bce-attr-3-name" class="er entityLabel">alertId</text><rect height="22" width="44.265625" y="90.18359565734863" x="0" class="er attributeBoxEven"></rect><text style="dominant-baseline: middle; font-size: 10.2px;" transform="translate(5,101.18359565734863)" y="0" x="0" id="text-entity-alert-bdfbec97-e65d-501d-bd60-5e1f7da76bce-attr-4-type" class="er entityLabel">enum</text><rect height="22" width="60.984375" y="90.18359565734863" x="44.265625" class="er attributeBoxEven"></rect><text style="dominant-baseline: middle; font-size: 10.2px;" transform="translate(49.265625,101.18359565734863)" y="0" x="0" id="text-entity-alert-bdfbec97-e65d-501d-bd60-5e1f7da76bce-attr-4-name" class="er entityLabel">source</text><rect height="22.091796875" width="44.265625" y="112.18359565734863" x="0" class="er attributeBoxOdd"></rect><text style="dominant-baseline: middle; font-size: 10.2px;" transform="translate(5,123.22949409484863)" y="0" x="0" id="text-entity-alert-bdfbec97-e65d-501d-bd60-5e1f7da76bce-attr-5-type" class="er entityLabel">varchar</text><rect height="22.091796875" width="60.984375" y="112.18359565734863" x="44.265625" class="er attributeBoxOdd"></rect><text style="dominant-baseline: middle; font-size: 10.2px;" transform="translate(49.265625,123.22949409484863)" y="0" x="0" id="text-entity-alert-bdfbec97-e65d-501d-bd60-5e1f7da76bce-attr-5-name" class="er entityLabel">description</text></g><g transform="translate(332.875,20 )" id="entity-alertCallback-b464a021-e53a-557c-bf0e-ab21c379d4dc"><rect height="68" width="101.359375" y="0" x="0" class="er entityBox"></rect><text style="dominant-baseline: middle; text-anchor: middle; font-size: 12px;" transform="translate(50.6796875,12)" y="0" x="0" id="text-entity-alertCallback-b464a021-e53a-557c-bf0e-ab21c379d4dc" class="er entityLabel">alertCallback</text><rect height="22" width="54.03125" y="24" x="0" class="er attributeBoxOdd"></rect><text style="dominant-baseline: middle; font-size: 10.2px;" transform="translate(5,35)" y="0" x="0" id="text-entity-alertCallback-b464a021-e53a-557c-bf0e-ab21c379d4dc-attr-1-type" class="er entityLabel">varchar</text><rect height="22" width="47.328125" y="24" x="54.03125" class="er attributeBoxOdd"></rect><text style="dominant-baseline: middle; font-size: 10.2px;" transform="translate(59.03125,35)" y="0" x="0" id="text-entity-alertCallback-b464a021-e53a-557c-bf0e-ab21c379d4dc-attr-1-name" class="er entityLabel">id</text><rect height="22" width="54.03125" y="46" x="0" class="er attributeBoxEven"></rect><text style="dominant-baseline: middle; font-size: 10.2px;" transform="translate(5,57)" y="0" x="0" id="text-entity-alertCallback-b464a021-e53a-557c-bf0e-ab21c379d4dc-attr-2-type" class="er entityLabel">boolean</text><rect height="22" width="47.328125" y="46" x="54.03125" class="er attributeBoxEven"></rect><text style="dominant-baseline: middle; font-size: 10.2px;" transform="translate(59.03125,57)" y="0" x="0" id="text-entity-alertCallback-b464a021-e53a-557c-bf0e-ab21c379d4dc-attr-2-name" class="er entityLabel">delete</text></g><g transform="translate(265,188 )" id="entity-alertCallback-7c80c5f4-a308-516c-91a5-0572fbb6c35a"><rect height="354.8261785507202" width="137.109375" y="0" x="0" class="er entityBox"></rect><text style="dominant-baseline: middle; text-anchor: middle; font-size: 12px;" transform="translate(68.5546875,12)" y="0" x="0" id="text-entity-alertCallback-7c80c5f4-a308-516c-91a5-0572fbb6c35a" class="er entityLabel">_alertCallback</text><rect height="22.091797828674316" width="44.265625" y="24" x="0" class="er attributeBoxOdd"></rect><text style="dominant-baseline: middle; font-size: 10.2px;" transform="translate(5,35.04589891433716)" y="0" x="0" id="text-entity-alertCallback-7c80c5f4-a308-516c-91a5-0572fbb6c35a-attr-1-type" class="er entityLabel">integer</text><rect height="22.091797828674316" width="92.84375" y="24" x="44.265625" class="er attributeBoxOdd"></rect><text style="dominant-baseline: middle; font-size: 10.2px;" transform="translate(49.265625,35.04589891433716)" y="0" x="0" id="text-entity-alertCallback-7c80c5f4-a308-516c-91a5-0572fbb6c35a-attr-1-name" class="er entityLabel">tsId</text><rect height="22.091797828674316" width="44.265625" y="46.091797828674316" x="0" class="er attributeBoxEven"></rect><text style="dominant-baseline: middle; font-size: 10.2px;" transform="translate(5,57.137696743011475)" y="0" x="0" id="text-entity-alertCallback-7c80c5f4-a308-516c-91a5-0572fbb6c35a-attr-2-type" class="er entityLabel">varchar</text><rect height="22.091797828674316" width="92.84375" y="46.091797828674316" x="44.265625" class="er attributeBoxEven"></rect><text style="dominant-baseline: middle; font-size: 10.2px;" transform="translate(49.265625,57.137696743011475)" y="0" x="0" id="text-entity-alertCallback-7c80c5f4-a308-516c-91a5-0572fbb6c35a-attr-2-name" class="er entityLabel">point</text><rect height="22" width="44.265625" y="68.18359565734863" x="0" class="er attributeBoxOdd"></rect><text style="dominant-baseline: middle; font-size: 10.2px;" transform="translate(5,79.18359565734863)" y="0" x="0" id="text-entity-alertCallback-7c80c5f4-a308-516c-91a5-0572fbb6c35a-attr-3-type" class="er entityLabel">varchar</text><rect height="22" width="92.84375" y="68.18359565734863" x="44.265625" class="er attributeBoxOdd"></rect><text style="dominant-baseline: middle; font-size: 10.2px;" transform="translate(49.265625,79.18359565734863)" y="0" x="0" id="text-entity-alertCallback-7c80c5f4-a308-516c-91a5-0572fbb6c35a-attr-3-name" class="er entityLabel">alertId</text><rect height="22" width="44.265625" y="90.18359565734863" x="0" class="er attributeBoxEven"></rect><text style="dominant-baseline: middle; font-size: 10.2px;" transform="translate(5,101.18359565734863)" y="0" x="0" id="text-entity-alertCallback-7c80c5f4-a308-516c-91a5-0572fbb6c35a-attr-4-type" class="er entityLabel">varchar</text><rect height="22" width="92.84375" y="90.18359565734863" x="44.265625" class="er attributeBoxEven"></rect><text style="dominant-baseline: middle; font-size: 10.2px;" transform="translate(49.265625,101.18359565734863)" y="0" x="0" id="text-entity-alertCallback-7c80c5f4-a308-516c-91a5-0572fbb6c35a-attr-4-name" class="er entityLabel">alertCallbackId</text><rect height="22" width="44.265625" y="112.18359565734863" x="0" class="er attributeBoxOdd"></rect><text style="dominant-baseline: middle; font-size: 10.2px;" transform="translate(5,123.18359565734863)" y="0" x="0" id="text-entity-alertCallback-7c80c5f4-a308-516c-91a5-0572fbb6c35a-attr-5-type" class="er entityLabel">enum</text><rect height="22" width="92.84375" y="112.18359565734863" x="44.265625" class="er attributeBoxOdd"></rect><text style="dominant-baseline: middle; font-size: 10.2px;" transform="translate(49.265625,123.18359565734863)" y="0" x="0" id="text-entity-alertCallback-7c80c5f4-a308-516c-91a5-0572fbb6c35a-attr-5-name" class="er entityLabel">source</text><rect height="22.091796875" width="44.265625" y="134.18359565734863" x="0" class="er attributeBoxEven"></rect><text style="dominant-baseline: middle; font-size: 10.2px;" transform="translate(5,145.22949409484863)" y="0" x="0" id="text-entity-alertCallback-7c80c5f4-a308-516c-91a5-0572fbb6c35a-attr-6-type" class="er entityLabel">varchar</text><rect height="22.091796875" width="92.84375" y="134.18359565734863" x="44.265625" class="er attributeBoxEven"></rect><text style="dominant-baseline: middle; font-size: 10.2px;" transform="translate(49.265625,145.22949409484863)" y="0" x="0" id="text-entity-alertCallback-7c80c5f4-a308-516c-91a5-0572fbb6c35a-attr-6-name" class="er entityLabel">requestorId</text><rect height="22" width="44.265625" y="156.27539253234863" x="0" class="er attributeBoxOdd"></rect><text style="dominant-baseline: middle; font-size: 10.2px;" transform="translate(5,167.27539253234863)" y="0" x="0" id="text-entity-alertCallback-7c80c5f4-a308-516c-91a5-0572fbb6c35a-attr-7-type" class="er entityLabel">varchar</text><rect height="22" width="92.84375" y="156.27539253234863" x="44.265625" class="er attributeBoxOdd"></rect><text style="dominant-baseline: middle; font-size: 10.2px;" transform="translate(49.265625,167.27539253234863)" y="0" x="0" id="text-entity-alertCallback-7c80c5f4-a308-516c-91a5-0572fbb6c35a-attr-7-name" class="er entityLabel">callbackUrl</text><rect height="22" width="44.265625" y="178.27539253234863" x="0" class="er attributeBoxEven"></rect><text style="dominant-baseline: middle; font-size: 10.2px;" transform="translate(5,189.27539253234863)" y="0" x="0" id="text-entity-alertCallback-7c80c5f4-a308-516c-91a5-0572fbb6c35a-attr-8-type" class="er entityLabel">varchar</text><rect height="22" width="92.84375" y="178.27539253234863" x="44.265625" class="er attributeBoxEven"></rect><text style="dominant-baseline: middle; font-size: 10.2px;" transform="translate(49.265625,189.27539253234863)" y="0" x="0" id="text-entity-alertCallback-7c80c5f4-a308-516c-91a5-0572fbb6c35a-attr-8-name" class="er entityLabel">username</text><rect height="22.091796875" width="44.265625" y="200.27539253234863" x="0" class="er attributeBoxOdd"></rect><text style="dominant-baseline: middle; font-size: 10.2px;" transform="translate(5,211.32129096984863)" y="0" x="0" id="text-entity-alertCallback-7c80c5f4-a308-516c-91a5-0572fbb6c35a-attr-9-type" class="er entityLabel">varchar</text><rect height="22.091796875" width="92.84375" y="200.27539253234863" x="44.265625" class="er attributeBoxOdd"></rect><text style="dominant-baseline: middle; font-size: 10.2px;" transform="translate(49.265625,211.32129096984863)" y="0" x="0" id="text-entity-alertCallback-7c80c5f4-a308-516c-91a5-0572fbb6c35a-attr-9-name" class="er entityLabel">password</text><rect height="22" width="44.265625" y="222.36718940734863" x="0" class="er attributeBoxEven"></rect><text style="dominant-baseline: middle; font-size: 10.2px;" transform="translate(5,233.36718940734863)" y="0" x="0" id="text-entity-alertCallback-7c80c5f4-a308-516c-91a5-0572fbb6c35a-attr-10-type" class="er entityLabel">enum</text><rect height="22" width="92.84375" y="222.36718940734863" x="44.265625" class="er attributeBoxEven"></rect><text style="dominant-baseline: middle; font-size: 10.2px;" transform="translate(49.265625,233.36718940734863)" y="0" x="0" id="text-entity-alertCallback-7c80c5f4-a308-516c-91a5-0572fbb6c35a-attr-10-name" class="er entityLabel">authentication</text><rect height="22.091797828674316" width="44.265625" y="244.36718940734863" x="0" class="er attributeBoxOdd"></rect><text style="dominant-baseline: middle; font-size: 10.2px;" transform="translate(5,255.4130883216858)" y="0" x="0" id="text-entity-alertCallback-7c80c5f4-a308-516c-91a5-0572fbb6c35a-attr-11-type" class="er entityLabel">integer</text><rect height="22.091797828674316" width="92.84375" y="244.36718940734863" x="44.265625" class="er attributeBoxOdd"></rect><text style="dominant-baseline: middle; font-size: 10.2px;" transform="translate(49.265625,255.4130883216858)" y="0" x="0" id="text-entity-alertCallback-7c80c5f4-a308-516c-91a5-0572fbb6c35a-attr-11-name" class="er entityLabel">retries</text><rect height="22.091797828674316" width="44.265625" y="266.45898723602295" x="0" class="er attributeBoxEven"></rect><text style="dominant-baseline: middle; font-size: 10.2px;" transform="translate(5,277.5048861503601)" y="0" x="0" id="text-entity-alertCallback-7c80c5f4-a308-516c-91a5-0572fbb6c35a-attr-12-type" class="er entityLabel">integer</text><rect height="22.091797828674316" width="92.84375" y="266.45898723602295" x="44.265625" class="er attributeBoxEven"></rect><text style="dominant-baseline: middle; font-size: 10.2px;" transform="translate(49.265625,277.5048861503601)" y="0" x="0" id="text-entity-alertCallback-7c80c5f4-a308-516c-91a5-0572fbb6c35a-attr-12-name" class="er entityLabel">currentRetry</text><rect height="22.091797828674316" width="44.265625" y="288.55078506469727" x="0" class="er attributeBoxOdd"></rect><text style="dominant-baseline: middle; font-size: 10.2px;" transform="translate(5,299.5966839790344)" y="0" x="0" id="text-entity-alertCallback-7c80c5f4-a308-516c-91a5-0572fbb6c35a-attr-13-type" class="er entityLabel">integer</text><rect height="22.091797828674316" width="92.84375" y="288.55078506469727" x="44.265625" class="er attributeBoxOdd"></rect><text style="dominant-baseline: middle; font-size: 10.2px;" transform="translate(49.265625,299.5966839790344)" y="0" x="0" id="text-entity-alertCallback-7c80c5f4-a308-516c-91a5-0572fbb6c35a-attr-13-name" class="er entityLabel">retryDelay</text><rect height="22.091797828674316" width="44.265625" y="310.6425828933716" x="0" class="er attributeBoxEven"></rect><text style="dominant-baseline: middle; font-size: 10.2px;" transform="translate(5,321.68848180770874)" y="0" x="0" id="text-entity-alertCallback-7c80c5f4-a308-516c-91a5-0572fbb6c35a-attr-14-type" class="er entityLabel">integer</text><rect height="22.091797828674316" width="92.84375" y="310.6425828933716" x="44.265625" class="er attributeBoxEven"></rect><text style="dominant-baseline: middle; font-size: 10.2px;" transform="translate(49.265625,321.68848180770874)" y="0" x="0" id="text-entity-alertCallback-7c80c5f4-a308-516c-91a5-0572fbb6c35a-attr-14-name" class="er entityLabel">maxLifeRetries</text><rect height="22.091797828674316" width="44.265625" y="332.7343807220459" x="0" class="er attributeBoxOdd"></rect><text style="dominant-baseline: middle; font-size: 10.2px;" transform="translate(5,343.78027963638306)" y="0" x="0" id="text-entity-alertCallback-7c80c5f4-a308-516c-91a5-0572fbb6c35a-attr-15-type" class="er entityLabel">integer</text><rect height="22.091797828674316" width="92.84375" y="332.7343807220459" x="44.265625" class="er attributeBoxOdd"></rect><text style="dominant-baseline: middle; font-size: 10.2px;" transform="translate(49.265625,343.78027963638306)" y="0" x="0" id="text-entity-alertCallback-7c80c5f4-a308-516c-91a5-0572fbb6c35a-attr-15-name" class="er entityLabel">currentLifeRetries</text></g><rect height="14" width="35.84375" y="183.5643310546875" x="56.469093322753906" class="er relationshipLabelBox"></rect><text style="text-anchor: middle; dominant-baseline: middle; font-size: 12px;" y="190.5643310546875" x="74.3909683227539" id="rel79" class="er relationshipLabel">alertId</text><rect height="14" width="81.390625" y="131.39630126953125" x="340.9824523925781" class="er relationshipLabelBox"></rect><text style="text-anchor: middle; dominant-baseline: middle; font-size: 12px;" y="138.39630126953125" x="381.6777648925781" id="rel80" class="er relationshipLabel">alertCallbackId</text><rect height="14" width="35.84375" y="133.64581298828125" x="208.79000854492188" class="er relationshipLabelBox"></rect><text style="text-anchor: middle; dominant-baseline: middle; font-size: 12px;" y="140.64581298828125" x="226.71188354492188" id="rel81" class="er relationshipLabel">alertId</text></svg>